<svg xmlns="http://www.w3.org/2000/svg" width="1200" height="800" viewBox="0 0 1200 800">
  <defs>
    <marker id="arrow-1976d2" markerWidth="10" markerHeight="10" refX="9" refY="3" orient="auto">
      <polygon points="0 0, 10 3, 0 6" fill="#1976d2" />
    </marker>
    <marker id="arrow-tail-1976d2" markerWidth="10" markerHeight="10" refX="1" refY="3" orient="auto">
      <polygon points="10 0, 0 3, 10 6" fill="#1976d2" />
    </marker>
    <marker id="arrow-7b1fa2" markerWidth="10" markerHeight="10" refX="9" refY="3" orient="auto">
      <polygon points="0 0, 10 3, 0 6" fill="#7b1fa2" />
    </marker>
    <marker id="arrow-tail-7b1fa2" markerWidth="10" markerHeight="10" refX="1" refY="3" orient="auto">
      <polygon points="10 0, 0 3, 10 6" fill="#7b1fa2" />
    </marker>
  </defs>
  <rect width="1200" height="800" fill="white"/>
  <rect x="0" y="0" width="1200" height="800" fill="white" />
    <text x="244" y="89" font-size="36" font-family="Arial, sans-serif" fill="#212121" font-weight="bold" text-anchor="middle">All Features Together</text>
    <rect x="60" y="146" width="1080" height="447" fill="#fafafa" stroke="#999" stroke-width="2" rx="8" />
      <rect x="60" y="146" width="1080" height="38" fill="#f5f5f5" />
        <text x="72" y="169.66666666666666" font-size="14" font-family="Arial, sans-serif" fill="#333" font-weight="bold" text-anchor="start">System Architecture</text>
        <rect x="84" y="208" width="1000" height="361" fill="white" stroke="#ddd" stroke-width="2" rx="8" />
                <rect x="84" y="208" width="1000" height="37" fill="#f5f5f5" />
                  <text x="96" y="230.83333333333334" font-size="13" font-family="Arial, sans-serif" fill="#333" font-weight="bold" text-anchor="start">Client Layer</text>
                      <rect x="100" y="261" width="140" height="50" fill="#e3f2fd" stroke="#1976d2" stroke-width="2" rx="8" />
                        <text x="148" y="290.1666666666667" font-size="11" font-family="Arial, sans-serif" fill="black" font-weight="normal" text-anchor="start">Web App</text>
                      <rect x="248" y="261" width="140" height="50" fill="#e3f2fd" stroke="#1976d2" stroke-width="2" rx="8" />
                        <text x="291" y="290.1666666666667" font-size="11" font-family="Arial, sans-serif" fill="black" font-weight="normal" text-anchor="start">Mobile App</text>
            <rect x="84" y="327" width="1000" height="2" fill="#e0e0e0" />
                <rect x="84" y="329" width="1000" height="37" fill="#f5f5f5" />
                  <text x="96" y="351.8333333333333" font-size="13" font-family="Arial, sans-serif" fill="#333" font-weight="bold" text-anchor="start">Service Layer</text>
                      <rect x="100" y="382" width="300" height="50" fill="#f3e5f5" stroke="#7b1fa2" stroke-width="2" rx="8" />
                        <text x="218" y="411.1666666666667" font-size="11" font-family="Arial, sans-serif" fill="black" font-weight="normal" text-anchor="start">API Gateway</text>
            <rect x="84" y="448" width="1000" height="2" fill="#e0e0e0" />
                <rect x="84" y="450" width="1000" height="37" fill="#f5f5f5" />
                  <text x="96" y="472.8333333333333" font-size="13" font-family="Arial, sans-serif" fill="#333" font-weight="bold" text-anchor="start">Data Layer</text>
                  <rect x="100" y="503" width="300" height="50" fill="#fff3e0" stroke="#f57c00" stroke-width="2" rx="8" />
                    <text x="226" y="532.1666666666666" font-size="11" font-family="Arial, sans-serif" fill="black" font-weight="normal" text-anchor="start">Database</text>
  <path d="M 240 286 L 250 382" stroke="#1976d2" stroke-width="2" fill="none" marker-end="url(#arrow-1976d2)" />
  <path d="M 248 286 L 250 382" stroke="#1976d2" stroke-width="2" fill="none" marker-end="url(#arrow-1976d2)" />
  <path d="M 250 432 L 250 432 L 250 503 L 250 503" stroke="#7b1fa2" stroke-width="2" fill="none" stroke-dasharray="8,4" marker-end="url(#arrow-7b1fa2)" />
  <rect x="228" y="457.5" width="44" height="20" fill="white" fill-opacity="0.85" rx="2" />
  <text x="250" y="471.5" font-size="12" fill="#7b1fa2" text-anchor="middle">Query</text>
</svg>